<?xml version="1.0" standalone="no"?>
<!DOCTYPE svg PUBLIC "-//W3C//DTD SVG 20010904//EN"
 "http://www.w3.org/TR/2001/REC-SVG-20010904/DTD/svg10.dtd">
<svg version="1.0" xmlns="http://www.w3.org/2000/svg"
 width="500.000000pt" height="500.000000pt" viewBox="0 0 500.000000 500.000000"
 preserveAspectRatio="xMidYMid meet">
<metadata>
Created by potrace 1.14, written by Peter Selinger 2001-2017
</metadata>
<g transform="translate(0.000000,500.000000) scale(0.100000,-0.100000)"
fill="#000000" stroke="none">
<path d="M2477 4673 c-1 0 -31 -3 -67 -6 -36 -3 -78 -8 -95 -12 -16 -3 -36 -6
-42 -7 -7 -1 -13 -5 -13 -10 0 -4 -3 -7 -7 -6 -5 1 -28 -5 -53 -12 -25 -7 -48
-13 -52 -12 -5 1 -8 -2 -8 -8 0 -5 -7 -7 -15 -4 -8 4 -15 2 -15 -4 0 -5 -12
-8 -27 -6 -15 1 -33 -2 -40 -8 -7 -6 -13 -7 -13 -3 0 4 -6 3 -12 -2 -7 -6 -21
-9 -30 -8 -10 2 -20 -1 -24 -6 -3 -5 -16 -9 -29 -9 -13 0 -25 -5 -27 -11 -2
-5 -10 -11 -18 -12 -27 -4 -209 -100 -205 -108 3 -4 -5 -10 -18 -13 -12 -3
-41 -24 -65 -46 -24 -22 -48 -40 -54 -40 -6 0 -9 -2 -6 -5 3 -3 -6 -18 -21
-33 -107 -112 -139 -150 -134 -156 3 -3 -1 -6 -11 -6 -9 0 -15 -4 -12 -9 4 -5
3 -11 -1 -13 -11 -4 -67 -86 -88 -128 -9 -19 -27 -45 -38 -57 -11 -13 -18 -23
-14 -23 4 0 -7 -21 -23 -47 -17 -26 -30 -53 -30 -60 0 -7 -4 -13 -10 -13 -5 0
-10 -7 -10 -15 0 -9 -7 -32 -16 -53 -16 -36 -24 -67 -27 -107 -1 -11 -6 -26
-10 -32 -5 -7 -5 -17 -2 -23 3 -5 2 -10 -2 -10 -5 0 -9 -60 -10 -132 -1 -131
-7 -188 -23 -218 -8 -14 -18 -81 -26 -165 -11 -129 0 -450 16 -450 1 0 3 -9 4
-20 4 -31 21 -110 26 -120 1 -3 3 -8 4 -12 9 -39 34 -96 59 -132 40 -59 60
-123 71 -231 9 -90 35 -190 49 -190 5 0 7 -6 4 -14 -3 -7 -1 -18 3 -22 5 -5
12 -27 15 -49 19 -142 49 -230 135 -400 94 -182 147 -276 175 -305 20 -21 68
-145 80 -209 2 -9 4 -16 5 -16 1 0 3 -13 5 -30 3 -25 14 -83 20 -105 6 -23 18
-109 18 -122 -2 -49 -5 -56 -25 -62 -25 -6 -181 -105 -186 -118 -2 -4 -12 -8
-21 -8 -10 0 -28 -11 -40 -24 -12 -13 -41 -32 -64 -42 -23 -10 -48 -24 -55
-31 -7 -7 -24 -16 -38 -19 -13 -3 -24 -10 -24 -15 0 -5 -3 -8 -7 -7 -8 2 -96
-51 -120 -72 -7 -5 -16 -10 -21 -10 -4 0 -18 -9 -30 -20 -12 -12 -22 -18 -22
-15 0 3 -26 -12 -57 -33 -68 -46 -125 -77 -135 -74 -5 1 -8 -2 -8 -7 0 -6 -19
-14 -42 -19 -28 -6 705 -10 2065 -11 l2107 -1 0 95 0 95 -47 23 c-27 12 -50
25 -53 28 -6 6 -136 69 -144 69 -2 0 -43 22 -89 49 -47 27 -96 52 -109 56 -12
4 -42 18 -66 31 -23 13 -48 24 -55 24 -7 0 -23 9 -34 19 -12 11 -24 17 -27 14
-3 -4 -6 -2 -6 4 0 11 -59 40 -72 35 -5 -1 -8 3 -8 10 0 6 -3 9 -6 5 -3 -3
-49 16 -102 43 -83 41 -116 56 -142 65 -3 1 -18 7 -35 14 -16 7 -42 15 -58 18
-26 5 -77 54 -77 73 0 5 -17 18 -37 30 -21 12 -47 36 -58 53 -17 26 -27 32
-55 31 -19 -1 -42 -4 -51 -8 -20 -9 -93 59 -97 90 -1 11 5 47 13 80 9 32 18
66 20 74 2 8 4 15 5 15 1 0 3 9 5 20 6 31 18 89 21 100 12 42 16 70 19 140 5
99 13 175 20 194 3 8 8 46 11 85 3 39 8 74 10 78 3 5 8 21 11 36 3 15 6 32 7
37 4 22 31 75 38 75 5 0 8 4 8 10 0 5 10 21 23 36 12 14 22 29 22 32 1 4 14
32 30 62 16 30 30 57 30 60 1 3 12 28 25 55 13 28 24 56 26 64 1 8 8 17 15 22
7 4 14 18 16 31 2 13 12 30 22 38 16 12 19 28 19 83 -1 37 -4 67 -7 67 -3 0
-6 39 -6 88 0 48 -4 96 -9 107 -10 19 -12 26 -15 43 0 5 -10 18 -21 30 -12 12
-16 22 -10 22 17 0 11 28 -7 39 -10 6 -13 11 -7 11 6 0 10 10 9 23 -1 12 3 28
9 36 9 12 8 13 -4 7 -8 -4 -6 0 4 8 15 12 16 16 5 16 -12 0 -12 2 0 9 8 5 11
16 8 25 -3 8 -2 18 4 21 5 4 7 10 4 15 -3 5 1 24 10 41 12 23 13 29 3 23 -11
-6 -11 -5 0 9 8 9 11 21 7 27 -3 5 -2 10 3 10 5 0 8 11 6 25 -1 18 5 30 22 41
13 9 24 23 24 30 0 8 5 14 11 14 6 0 8 7 5 16 -3 8 -2 12 4 9 6 -3 11 -1 11 4
3 21 4 26 13 40 7 11 6 12 -5 6 -12 -8 -12 -6 0 8 7 9 11 26 8 37 -3 11 0 23
5 27 7 4 8 1 3 -7 -5 -8 -4 -11 3 -7 7 5 4 20 -9 47 -22 45 -23 54 -7 44 8 -5
9 -2 5 9 -4 11 -1 17 8 17 8 0 15 -5 15 -11 0 -5 5 -7 10 -4 16 10 -10 37 -30
32 -12 -3 -17 4 -19 32 -1 19 -4 37 -6 40 -3 2 0 10 7 18 9 11 7 12 -7 7 -15
-6 -16 -4 -7 13 6 11 8 23 5 27 -3 3 0 6 8 6 11 1 10 4 -3 14 -9 7 -16 22 -15
34 1 13 5 18 10 13 5 -5 17 -7 26 -4 11 3 11 1 -3 -7 -11 -8 -14 -15 -8 -19 6
-4 12 -26 13 -49 2 -23 7 -42 12 -42 4 0 5 -5 1 -12 -5 -7 -2 -9 9 -5 11 4 14
2 10 -8 -3 -8 -9 -12 -14 -9 -5 3 -6 -2 -3 -10 4 -10 1 -16 -7 -16 -9 0 -7 -5
5 -11 15 -9 22 -7 40 11 11 13 15 20 9 16 -9 -5 -11 -2 -7 8 3 9 10 13 16 10
5 -3 8 13 7 40 -2 25 -6 46 -9 46 -4 0 -7 15 -8 33 -3 59 -6 77 -15 77 -4 0
-6 4 -2 9 3 5 1 12 -4 15 -5 4 -8 17 -6 31 1 14 -2 25 -7 25 -6 0 -8 7 -4 15
3 8 1 15 -5 15 -6 0 -7 5 -4 10 3 6 1 10 -4 10 -6 0 -11 7 -11 16 0 8 -4 13
-9 10 -5 -3 -14 8 -21 24 -7 17 -17 30 -22 30 -5 0 -6 5 -3 10 3 6 1 10 -5 10
-5 0 -19 15 -30 33 -11 17 -20 28 -20 24 0 -5 -12 6 -27 24 -16 18 -27 36 -26
40 2 4 -6 11 -17 14 -12 4 -17 11 -13 18 4 7 -2 5 -12 -3 -11 -9 -16 -10 -11
-2 6 11 -5 17 -26 13 -5 0 -8 4 -8 9 0 6 -7 10 -16 10 -8 0 -12 5 -9 10 3 6
-1 10 -10 10 -17 0 -65 28 -77 45 -4 5 -8 6 -8 1 0 -5 -9 1 -19 13 -10 12 -21
17 -23 11 -5 -17 -68 19 -80 46 -6 13 -18 24 -26 24 -9 0 -13 3 -9 6 3 3 -5
18 -18 32 -13 14 -22 29 -19 34 3 4 -2 8 -10 8 -8 0 -20 9 -26 20 -6 11 -18
20 -28 20 -15 0 -15 2 -2 10 13 8 13 10 -1 10 -22 0 -70 25 -63 33 3 3 -3 3
-14 0 -11 -2 -23 0 -26 6 -4 6 -16 11 -27 11 -13 0 -18 4 -13 12 4 7 3 8 -5 4
-6 -4 -18 -2 -26 4 -8 7 -15 9 -15 6 0 -4 -10 -2 -21 5 -12 6 -33 12 -46 14
-14 1 -29 8 -33 15 -4 7 -13 9 -19 6 -6 -4 -13 -1 -16 6 -3 8 -15 15 -27 15
-12 1 -25 8 -29 15 -7 10 -9 10 -9 -1 0 -10 -3 -11 -14 -2 -14 12 -34 18 -88
28 -16 3 -28 8 -28 12 0 4 -14 8 -32 9 -18 2 -35 6 -38 10 -3 4 -14 8 -25 10
-11 2 -27 6 -35 9 -19 7 -36 11 -76 16 -18 3 -36 7 -42 11 -6 3 -13 2 -17 -4
-4 -7 -12 -7 -24 0 -15 7 -148 19 -154 13z m1577 -991 c3 -5 -1 -9 -9 -9 -8 0
-12 4 -9 9 3 4 7 8 9 8 2 0 6 -4 9 -8z"/>
<path d="M4055 3520 c3 -5 8 -10 11 -10 2 0 4 5 4 10 0 6 -5 10 -11 10 -5 0
-7 -4 -4 -10z"/>
</g>
</svg>
